<?xml version="1.0" encoding="UTF-8" standalone="no"?>
<!-- Created with Inkscape (http://www.inkscape.org/) -->

<svg
   version="1.1"
   id="svg1"
   width="1440"
   height="1440"
   viewBox="0 0 1440 1440"
   sodipodi:docname="physics_icon.svg"
   inkscape:version="1.3.2 (091e20e, 2023-11-25)"
   xmlns:inkscape="http://www.inkscape.org/namespaces/inkscape"
   xmlns:sodipodi="http://sodipodi.sourceforge.net/DTD/sodipodi-0.dtd"
   xmlns="http://www.w3.org/2000/svg"
   xmlns:svg="http://www.w3.org/2000/svg">
  <defs
     id="defs1">
    <clipPath
       clipPathUnits="userSpaceOnUse"
       id="clipPath2">
      <path
         d="M 0,1080 H 1080 V 0 H 0 Z"
         transform="translate(-812.55475,-254.84281)"
         id="path2" />
    </clipPath>
    <clipPath
       clipPathUnits="userSpaceOnUse"
       id="clipPath4">
      <path
         d="M 0,1080 H 1080 V 0 H 0 Z"
         transform="translate(-729.50492,-337.89261)"
         id="path4" />
    </clipPath>
    <clipPath
       clipPathUnits="userSpaceOnUse"
       id="clipPath6">
      <path
         d="M 0,1080 H 1080 V 0 H 0 Z"
         transform="translate(-480.32321,-587.07421)"
         id="path6" />
    </clipPath>
    <clipPath
       clipPathUnits="userSpaceOnUse"
       id="clipPath8">
      <path
         d="M 0,1080 H 1080 V 0 H 0 Z"
         transform="translate(-397.27391,-670.12352)"
         id="path8" />
    </clipPath>
    <clipPath
       clipPathUnits="userSpaceOnUse"
       id="clipPath10">
      <path
         d="M 0,1080 H 1080 V 0 H 0 Z"
         transform="translate(-646.45612,-420.94141)"
         id="path10" />
    </clipPath>
    <clipPath
       clipPathUnits="userSpaceOnUse"
       id="clipPath12">
      <path
         d="M 0,1080 H 1080 V 0 H 0 Z"
         transform="translate(-1063.7529,-19.406325)"
         id="path12" />
    </clipPath>
    <clipPath
       clipPathUnits="userSpaceOnUse"
       id="clipPath14">
      <path
         d="M 0,1080 H 1080 V 0 H 0 Z"
         transform="translate(-438.67091,-769.11572)"
         id="path14" />
    </clipPath>
    <clipPath
       clipPathUnits="userSpaceOnUse"
       id="clipPath16">
      <path
         d="M 0,1080 H 1080 V 0 H 0 Z"
         transform="translate(-831.0127,-1049.5752)"
         id="path16" />
    </clipPath>
    <clipPath
       clipPathUnits="userSpaceOnUse"
       id="clipPath18">
      <path
         d="M 0,1080 H 1080 V 0 H 0 Z"
         transform="translate(-616.43362,-769.11622)"
         id="path18" />
    </clipPath>
    <clipPath
       clipPathUnits="userSpaceOnUse"
       id="clipPath20">
      <path
         d="M 0,1080 H 1080 V 0 H 0 Z"
         transform="translate(-625.55762,-104.0439)"
         id="path20" />
    </clipPath>
  </defs>
  <sodipodi:namedview
     id="namedview1"
     pagecolor="#505050"
     bordercolor="#ffffff"
     borderopacity="1"
     inkscape:showpageshadow="0"
     inkscape:pageopacity="0"
     inkscape:pagecheckerboard="1"
     inkscape:deskcolor="#505050"
     inkscape:zoom="0.58541667"
     inkscape:cx="720"
     inkscape:cy="720"
     inkscape:window-width="1920"
     inkscape:window-height="1047"
     inkscape:window-x="0"
     inkscape:window-y="0"
     inkscape:window-maximized="1"
     inkscape:current-layer="layer-MC0">
    <inkscape:page
       x="0"
       y="0"
       inkscape:label="1"
       id="page1"
       width="1440"
       height="1440"
       margin="25.875601 21.666666 25.879999 21.662533"
       bleed="0" />
  </sodipodi:namedview>
  <g
     id="layer-MC0"
     inkscape:groupmode="layer"
     inkscape:label="Layer 1">
    <path
       id="path1"
       d="m 0,0 v 0 c -4.353,-4.353 -11.41,-4.353 -15.763,0 l -26,26 c -4.352,4.353 -4.352,11.409 0,15.762 v 10e-4 c 4.353,4.352 11.41,4.352 15.763,0 l 26,-26 C 4.353,11.41 4.353,4.353 0,0"
       style="fill:#000000;fill-opacity:1;fill-rule:nonzero;stroke:none"
       transform="matrix(1.3333333,0,0,-1.3333333,1083.4063,1100.2096)"
       clip-path="url(#clipPath2)" />
    <path
       id="path3"
       d="m 0,0 v 0 c -4.353,-4.353 -11.409,-4.353 -15.763,0 l -26.033,26.033 c -4.352,4.353 -4.352,11.41 0,15.763 4.353,4.352 11.41,4.352 15.763,0 L 0,15.762 C 4.353,11.409 4.353,4.353 0,0"
       style="fill:#000000;fill-opacity:1;fill-rule:nonzero;stroke:none"
       transform="matrix(1.3333333,0,0,-1.3333333,972.6732,989.47653)"
       clip-path="url(#clipPath4)" />
    <path
       id="path5"
       d="m 0,0 v 0 c -4.353,-4.353 -11.41,-4.353 -15.763,0 l -26.033,26.033 c -4.352,4.353 -4.352,11.41 0,15.763 4.353,4.352 11.41,4.352 15.762,0 L 0,15.762 C 4.353,11.41 4.353,4.353 0,0"
       style="fill:#000000;fill-opacity:1;fill-rule:nonzero;stroke:none"
       transform="matrix(1.3333333,0,0,-1.3333333,640.43093,657.2344)"
       clip-path="url(#clipPath6)" />
    <path
       id="path7"
       d="m 0,0 v 0 c -4.353,-4.353 -11.41,-4.353 -15.763,0 l -26.033,26.033 c -4.352,4.353 -4.352,11.41 0,15.763 4.353,4.352 11.41,4.352 15.762,0 L 0,15.762 C 4.353,11.41 4.353,4.353 0,0"
       style="fill:#000000;fill-opacity:1;fill-rule:nonzero;stroke:none"
       transform="matrix(1.3333333,0,0,-1.3333333,529.69853,546.502)"
       clip-path="url(#clipPath8)" />
    <path
       id="path9"
       d="m 0,0 v 0 c -4.353,-4.353 -11.41,-4.353 -15.763,0 l -26.033,26.034 c -4.352,4.353 -4.352,11.409 0,15.762 4.353,4.352 11.409,4.352 15.762,0 L 0,15.763 C 4.353,11.41 4.353,4.353 0,0"
       style="fill:#000000;fill-opacity:1;fill-rule:nonzero;stroke:none"
       transform="matrix(1.3333333,0,0,-1.3333333,861.94147,878.7448)"
       clip-path="url(#clipPath10)" />
    <path
       id="path11"
       d="m 0,0 h -1047.506 v 747.218 c 0,68.773 56.269,126.884 125.037,126.115 29.688,-0.333 56.888,-11.122 78.044,-28.907 l 94.863,-94.863 c 4.353,-4.353 4.353,-11.41 0,-15.762 -4.353,-4.353 -11.41,-4.353 -15.763,0 l -94.151,94.15 c -18.067,14.882 -40.88,23.085 -64.405,23.085 -55.864,0 -101.32,-45.457 -101.32,-101.354 V 22.305 h 971.372 l -156.082,156.082 c -4.353,4.352 -4.353,11.41 0,15.762 4.352,4.353 11.409,4.353 15.763,0 z"
       style="fill:#000000;fill-opacity:1;fill-rule:nonzero;stroke:none"
       transform="matrix(1.3333333,0,0,-1.3333333,1418.3372,1414.1249)"
       clip-path="url(#clipPath12)" />
    <path
       id="path13"
       d="m 0,0 c 0,55.874 45.456,101.33 101.329,101.33 55.873,0 101.329,-45.456 101.329,-101.33 0,-55.873 -45.456,-101.329 -101.329,-101.329 C 45.456,-101.329 0,-55.873 0,0 m 182.507,-403.398 c -2.958,0 -5.795,-1.175 -7.887,-3.267 l -62.141,-62.142 v 345.702 C 175.529,-117.466 224.96,-64.519 224.96,0 224.96,68.28 169.608,123.631 101.329,123.631 33.05,123.631 -22.302,68.28 -22.302,0 c 0,-64.519 49.43,-117.466 112.482,-123.105 v -345.702 l -62.142,62.142 c -2.092,2.092 -4.929,3.267 -7.886,3.267 -9.936,0 -14.912,-12.013 -7.886,-19.038 l 81.177,-81.178 c 0.038,-0.038 0.084,-0.062 0.122,-0.099 0.487,-0.474 1.011,-0.91 1.578,-1.288 0.282,-0.19 0.587,-0.32 0.882,-0.48 0.344,-0.187 0.674,-0.395 1.038,-0.546 0.369,-0.153 0.754,-0.241 1.134,-0.352 0.317,-0.093 0.62,-0.216 0.949,-0.282 1.441,-0.286 2.926,-0.286 4.367,0 0.327,0.066 0.629,0.188 0.944,0.281 0.382,0.111 0.768,0.2 1.139,0.353 0.361,0.151 0.689,0.357 1.031,0.543 0.297,0.161 0.604,0.292 0.89,0.483 0.565,0.378 1.088,0.813 1.575,1.287 0.039,0.037 0.085,0.062 0.123,0.1 l 81.178,81.178 c 7.025,7.025 2.049,19.038 -7.886,19.038"
       style="fill:#000000;fill-opacity:1;fill-rule:nonzero;stroke:none"
       transform="matrix(1.3333333,0,0,-1.3333333,584.89453,414.5124)"
       clip-path="url(#clipPath14)" />
    <path
       id="path15"
       d="m 0,0 c -0.008,0.687 -0.072,1.373 -0.207,2.049 -0.066,0.333 -0.19,0.641 -0.285,0.964 -0.111,0.375 -0.197,0.755 -0.348,1.119 -0.154,0.372 -0.366,0.709 -0.557,1.06 -0.158,0.287 -0.284,0.584 -0.467,0.859 -0.817,1.222 -1.866,2.272 -3.089,3.089 -0.275,0.184 -0.572,0.31 -0.859,0.466 -0.35,0.193 -0.689,0.405 -1.062,0.559 -0.359,0.148 -0.733,0.233 -1.104,0.343 -0.327,0.097 -0.64,0.223 -0.979,0.29 -0.675,0.134 -1.359,0.198 -2.046,0.206 -0.046,0.001 -0.089,0.014 -0.136,0.014 h -114.802 c -9.936,0 -14.912,-12.013 -7.886,-19.038 2.092,-2.092 4.928,-3.267 7.886,-3.267 h 87.882 l -140.062,-140.062 c -4.355,-4.354 -4.355,-11.413 0,-15.767 4.353,-4.354 11.413,-4.354 15.767,0 l 140.063,140.062 v -87.883 c 0,-2.957 1.175,-5.794 3.267,-7.885 7.025,-7.026 19.038,-2.05 19.038,7.885 V -0.134 C 0.014,-0.088 0,-0.046 0,0"
       style="fill:#000000;fill-opacity:1;fill-rule:nonzero;stroke:none"
       transform="matrix(1.3333333,0,0,-1.3333333,1108.0169,40.5664)"
       clip-path="url(#clipPath16)" />
    <path
       id="path17"
       d="m 0,0 c 0,42.213 -34.221,76.434 -76.434,76.434 -36,0 -66.169,-24.896 -74.274,-58.405 13.184,10.811 30.046,17.304 48.427,17.304 42.214,0 76.434,-34.221 76.434,-76.434 0,-6.213 -0.759,-12.246 -2.159,-18.029 C -10.911,-45.113 0,-23.833 0,0"
       style="fill:#000000;fill-opacity:1;fill-rule:nonzero;stroke:none"
       transform="matrix(1.3333333,0,0,-1.3333333,821.91147,414.51173)"
       clip-path="url(#clipPath18)" />
    <path
       id="path19"
       d="M 0,0 H -523.346 V 523.347 C -523.346,234.301 -289.045,0 0,0"
       style="fill:#000000;fill-opacity:1;fill-rule:nonzero;stroke:none"
       transform="matrix(1.3333333,0,0,-1.3333333,834.0768,1301.2748)"
       clip-path="url(#clipPath20)" />
  </g>
</svg>
