<?xml version="1.0" encoding="UTF-8" standalone="no"?>
<!-- Created with Inkscape (http://www.inkscape.org/) -->

<svg
   version="1.1"
   id="svg1"
   width="1440"
   height="1440"
   viewBox="0 0 1440 1440"
   sodipodi:docname="book_and_pen_icon.svg"
   inkscape:version="1.3.2 (091e20e, 2023-11-25)"
   xmlns:inkscape="http://www.inkscape.org/namespaces/inkscape"
   xmlns:sodipodi="http://sodipodi.sourceforge.net/DTD/sodipodi-0.dtd"
   xmlns="http://www.w3.org/2000/svg"
   xmlns:svg="http://www.w3.org/2000/svg">
  <defs
     id="defs1">
    <clipPath
       clipPathUnits="userSpaceOnUse"
       id="clipPath2">
      <path
         d="M 0,1080 H 1080 V 0 H 0 Z"
         transform="translate(-523.43212,-94.230527)"
         id="path2" />
    </clipPath>
    <clipPath
       clipPathUnits="userSpaceOnUse"
       id="clipPath4">
      <path
         d="M 0,1080 H 1080 V 0 H 0 Z"
         transform="translate(-191.84721,-641.84422)"
         id="path4" />
    </clipPath>
    <clipPath
       clipPathUnits="userSpaceOnUse"
       id="clipPath6">
      <path
         d="M 0,1080 H 1080 V 0 H 0 Z"
         transform="translate(-525.36772,-107.0664)"
         id="path6" />
    </clipPath>
    <clipPath
       clipPathUnits="userSpaceOnUse"
       id="clipPath8">
      <path
         d="M 0,1080 H 1080 V 0 H 0 Z"
         transform="translate(-1071.2773,-50.037076)"
         id="path8" />
    </clipPath>
    <clipPath
       clipPathUnits="userSpaceOnUse"
       id="clipPath10">
      <path
         d="M 0,1080 H 1080 V 0 H 0 Z"
         transform="translate(-888.15332,-641.84422)"
         id="path10" />
    </clipPath>
    <clipPath
       clipPathUnits="userSpaceOnUse"
       id="clipPath12">
      <path
         d="M 0,1080 H 1080 V 0 H 0 Z"
         transform="translate(-741.85162,-492.31841)"
         id="path12" />
    </clipPath>
    <clipPath
       clipPathUnits="userSpaceOnUse"
       id="clipPath14">
      <path
         d="M 0,1080 H 1080 V 0 H 0 Z"
         transform="translate(-550.10842,-198.1113)"
         id="path14" />
    </clipPath>
    <clipPath
       clipPathUnits="userSpaceOnUse"
       id="clipPath16">
      <path
         d="M 0,1080 H 1080 V 0 H 0 Z"
         transform="translate(-671.91502,-910.35113)"
         id="path16" />
    </clipPath>
  </defs>
  <sodipodi:namedview
     id="namedview1"
     pagecolor="#505050"
     bordercolor="#ffffff"
     borderopacity="1"
     inkscape:showpageshadow="0"
     inkscape:pageopacity="0"
     inkscape:pagecheckerboard="1"
     inkscape:deskcolor="#505050"
     inkscape:zoom="0.58541667"
     inkscape:cx="720"
     inkscape:cy="720"
     inkscape:window-width="1920"
     inkscape:window-height="1047"
     inkscape:window-x="0"
     inkscape:window-y="0"
     inkscape:window-maximized="1"
     inkscape:current-layer="layer-MC0">
    <inkscape:page
       x="0"
       y="0"
       inkscape:label="1"
       id="page1"
       width="1440"
       height="1440"
       margin="66.716667 11.626667 66.720001 11.6296"
       bleed="0" />
  </sodipodi:namedview>
  <g
     id="layer-MC0"
     inkscape:groupmode="layer"
     inkscape:label="Book_and_Pen">
    <path
       id="path1"
       d="M 0,0 C -0.576,0.07 -1.151,0.122 -1.727,0.175 H -1.744 C -190.551,20.266 -362.353,11.964 -514.71,-44.193 l 62.784,477.859 37.218,15.12 -53.489,-418.562 C -346.814,58.32 -189.19,43.67 -1.5,0.349 h 0.018 C -0.994,0.227 -0.489,0.122 0,0"
       style="fill:#000000;fill-opacity:1;fill-rule:nonzero;stroke:none"
       transform="matrix(1.3333333,0,0,-1.3333333,697.90947,1314.3593)"
       clip-path="url(#clipPath2)" />
    <path
       id="path3"
       d="m 0,0 h -38.368 l -55.809,-482.509 c 126.909,8.156 268.249,-18.854 425.539,-58.134 -134.826,53.135 -265.123,94.561 -381.489,94.06 z"
       style="fill:#000000;fill-opacity:1;fill-rule:nonzero;stroke:none"
       transform="matrix(1.3333333,0,0,-1.3333333,255.79627,584.20773)"
       clip-path="url(#clipPath4)" />
    <path
       id="path5"
       d="m 0,0 c -114.721,53.907 -227.541,105.495 -334.675,119.709 l 45.344,476.69 c 50.21,-6.4 98.013,-19.69 143.079,-40.792 C -162.489,472.941 -179.04,415.755 -187.219,385.252 -110.169,317.672 -30.538,167.966 0,0"
       style="fill:#000000;fill-opacity:1;fill-rule:nonzero;stroke:none"
       transform="matrix(1.3333333,0,0,-1.3333333,700.49027,1297.2448)"
       clip-path="url(#clipPath6)" />
    <path
       id="path7"
       d="m 0,0 c -152.356,56.157 -324.159,64.459 -512.965,44.368 h -0.017 c -0.577,-0.053 -1.152,-0.104 -1.727,-0.175 0.488,0.122 0.994,0.227 1.482,0.349 h 0.018 c 187.689,43.321 345.313,57.972 466.696,29.875 l -53.488,418.562 37.217,-15.12 z"
       style="fill:#000000;fill-opacity:1;fill-rule:nonzero;stroke:none"
       transform="matrix(1.3333333,0,0,-1.3333333,1428.3697,1373.2839)"
       clip-path="url(#clipPath8)" />
    <path
       id="path9"
       d="m 0,0 h 38.368 l 55.808,-482.509 c -126.908,8.156 -268.248,-18.854 -425.538,-58.134 134.826,53.135 265.123,94.561 381.488,94.06 z"
       style="fill:#000000;fill-opacity:1;fill-rule:nonzero;stroke:none"
       transform="matrix(1.3333333,0,0,-1.3333333,1184.2044,584.20773)"
       clip-path="url(#clipPath10)" />
    <path
       id="path11"
       d="m 0,0 c -8.179,30.503 -24.729,87.689 -40.967,170.355 45.066,21.103 92.869,34.392 143.079,40.792 l 45.344,-476.69 C 40.321,-279.757 -72.498,-331.345 -187.22,-385.252 -156.682,-217.286 -77.05,-67.58 0,0"
       style="fill:#000000;fill-opacity:1;fill-rule:nonzero;stroke:none"
       transform="matrix(1.3333333,0,0,-1.3333333,989.13547,783.57547)"
       clip-path="url(#clipPath12)" />
    <path
       id="path13"
       d="m 0,0 c 0.354,0.082 0.71,0.109 1.093,0.109 3.333,0 6.037,-2.705 6.037,-6.037 0,-3.333 -2.704,-6.038 -6.037,-6.038 -3.333,0 -6.038,2.705 -6.038,6.038 0,0.956 0.218,1.858 0.629,2.65 l -0.082,260.297 c 11.993,2.594 20.98,13.276 20.98,26.061 0,7.514 -3.087,14.288 -8.086,19.124 -3.497,3.442 -7.95,5.873 -12.894,6.939 -1.831,0.41 -3.744,0.628 -5.71,0.628 -1.967,0 -3.88,-0.218 -5.71,-0.628 -4.945,-1.066 -9.398,-3.497 -12.895,-6.939 -4.999,-4.836 -8.086,-11.61 -8.086,-19.124 0,-12.785 8.988,-23.467 20.981,-26.061 L -15.9,-3.278 c 0.41,-0.792 0.628,-1.694 0.628,-2.65 0,-3.333 -2.704,-6.038 -6.037,-6.038 -3.333,0 -6.038,2.705 -6.038,6.038 0,3.332 2.705,6.037 6.038,6.037 0.382,0 0.737,-0.027 1.093,-0.109 -23.139,138.071 -88.344,262.065 -151.369,317.359 12.649,47.18 50.315,174.084 62.882,373.896 H 88.486 C 101.053,491.443 138.719,364.539 151.368,317.359 88.343,262.065 23.139,138.071 0,0"
       style="fill:#000000;fill-opacity:1;fill-rule:nonzero;stroke:none"
       transform="matrix(1.3333333,0,0,-1.3333333,733.47787,1175.8516)"
       clip-path="url(#clipPath14)" />
    <path
       id="path15"
       d="m 0,0 h -263.83 c -3.635,0 -6.583,2.947 -6.583,6.583 V 119.611 H 6.582 V 6.583 C 6.582,2.947 3.636,0 0,0"
       style="fill:#000000;fill-opacity:1;fill-rule:nonzero;stroke:none"
       transform="matrix(1.3333333,0,0,-1.3333333,895.88667,226.19853)"
       clip-path="url(#clipPath16)" />
  </g>
</svg>
